<svg width="19" height="20" viewBox="0 0 19 20" fill="none" xmlns="http://www.w3.org/2000/svg">
<path d="M14.9776 0.568098C14.8941 0.234223 14.5942 0 14.25 0C13.9058 0 13.6059 0.234223 13.5224 0.568098C13.2936 1.48333 12.9692 2.09514 12.5322 2.53217C12.0951 2.9692 11.4833 3.29358 10.5681 3.52239C10.2342 3.60586 10 3.90585 10 4.25C10 4.59415 10.2342 4.89414 10.5681 4.97761C11.4833 5.20642 12.0951 5.5308 12.5322 5.96783C12.9692 6.40486 13.2936 7.01667 13.5224 7.9319C13.6059 8.26578 13.9058 8.5 14.25 8.5C14.5942 8.5 14.8941 8.26578 14.9776 7.9319C15.2064 7.01667 15.5308 6.40486 15.9678 5.96783C16.4049 5.5308 17.0167 5.20642 17.9319 4.97761C18.2658 4.89414 18.5 4.59415 18.5 4.25C18.5 3.90585 18.2658 3.60586 17.9319 3.52239C17.0167 3.29358 16.4049 2.9692 15.9678 2.53217C15.5308 2.09514 15.2064 1.48333 14.9776 0.568098Z" fill="white"/>
<path d="M7.97761 4.5681C7.89414 4.23422 7.59415 4 7.25 4C6.90585 4 6.60586 4.23422 6.52239 4.5681C6.0793 6.34048 5.43349 7.59514 4.51431 8.51431C3.59514 9.43349 2.34048 10.0793 0.568098 10.5224C0.234223 10.6059 0 10.9058 0 11.25C0 11.5942 0.234223 11.8941 0.568098 11.9776C2.34048 12.4207 3.59513 13.0665 4.51431 13.9857C5.43349 14.9049 6.0793 16.1595 6.52239 17.9319C6.60586 18.2658 6.90585 18.5 7.25 18.5C7.59415 18.5 7.89414 18.2658 7.97761 17.9319C8.4207 16.1595 9.06651 14.9049 9.98569 13.9857C10.9049 13.0665 12.1595 12.4207 13.9319 11.9776C14.2658 11.8941 14.5 11.5942 14.5 11.25C14.5 10.9058 14.2658 10.6059 13.9319 10.5224C12.1595 10.0793 10.9049 9.43349 9.98569 8.51431C9.06651 7.59514 8.4207 6.34048 7.97761 4.5681Z" fill="white"/>
<path d="M13.7276 15.0681C13.6441 14.7342 13.3442 14.5 13 14.5C12.6558 14.5 12.3559 14.7342 12.2724 15.0681C12.1686 15.4833 12.0317 15.7201 11.8759 15.8759C11.7201 16.0317 11.4833 16.1686 11.0681 16.2724C10.7342 16.3559 10.5 16.6558 10.5 17C10.5 17.3442 10.7342 17.6441 11.0681 17.7276C11.4833 17.8314 11.7201 17.9683 11.8759 18.1241C12.0317 18.2799 12.1686 18.5167 12.2724 18.9319C12.3559 19.2658 12.6558 19.5 13 19.5C13.3442 19.5 13.6441 19.2658 13.7276 18.9319C13.8314 18.5167 13.9683 18.2799 14.1241 18.1241C14.2799 17.9683 14.5167 17.8314 14.9319 17.7276C15.2658 17.6441 15.5 17.3442 15.5 17C15.5 16.6558 15.2658 16.3559 14.9319 16.2724C14.5167 16.1686 14.2799 16.0317 14.1241 15.8759C13.9683 15.7201 13.8314 15.4833 13.7276 15.0681Z" fill="white"/>
</svg>
