<svg width="1240" height="1032" viewBox="0 0 1240 1032" fill="none" xmlns="http://www.w3.org/2000/svg">
<g filter="url(#filter0_f_112_11)">
<path d="M565.392 154.134C593.562 119.503 646.438 119.503 674.608 154.134L775.366 278.003C788.851 294.582 809.138 304.137 830.508 303.975L1002.53 302.671C1062.89 302.213 1095.79 372.961 1056.55 418.825L1012.56 470.235C990.016 496.581 990.016 535.419 1012.56 561.765L1056.55 613.175C1095.79 659.039 1062.89 729.787 1002.53 729.329L830.508 728.025C809.138 727.863 788.851 737.418 775.366 753.997L674.608 877.866C646.438 912.497 593.562 912.497 565.392 877.866L464.634 753.997C451.149 737.418 430.862 727.863 409.492 728.025L237.472 729.329C177.111 729.787 144.209 659.039 183.453 613.175L227.442 561.765C249.984 535.419 249.984 496.581 227.442 470.235L183.453 418.825C144.209 372.961 177.111 302.213 237.472 302.671L409.492 303.975C430.862 304.137 451.149 294.582 464.634 278.003L565.392 154.134Z" fill="url(#paint0_linear_112_11)" fill-opacity="0.25"/>
</g>
<ellipse cx="338.496" cy="653.807" rx="181.337" ry="181.447" fill="white" fill-opacity="0.2"/>
<ellipse cx="607.911" cy="506.057" rx="257.326" ry="256.618" fill="white" fill-opacity="0.2"/>
<ellipse cx="879.053" cy="543.211" rx="139.889" ry="139.974" fill="white" fill-opacity="0.2"/>
<path d="M818.562 394.012C818.562 394.012 845.924 359.093 850.057 343.88C854.171 328.668 866.331 302.12 870.047 306.873C873.783 311.626 864.106 338.949 864.106 338.949C864.106 338.949 891.468 319.58 901.205 314.688C910.683 309.935 956.564 332.207 933.812 343.144C924.116 347.798 895.502 363.408 885.586 369.036C863.45 381.603 855.621 404.512 855.621 404.512L818.582 394.012H818.562Z" fill="white"/>
<path d="M855.601 405.983C855.462 405.983 855.323 405.983 855.204 405.924L818.364 395.484C818.364 395.484 818.165 395.444 818.066 395.424C817.469 395.225 817.072 394.648 817.072 394.012C817.072 393.594 817.231 393.237 817.489 392.958C819.377 390.532 844.732 357.76 848.607 343.482C851.488 332.864 861.98 306.177 868.398 304.884C869.491 304.666 870.524 305.063 871.22 305.958C874.498 310.154 869.749 326.6 866.987 335.111C874.856 329.622 892.879 317.194 900.529 313.356C906.172 310.532 921.294 315.702 931.051 322.205C936.038 325.546 941.92 330.676 941.522 336.244C941.284 339.545 938.899 342.309 934.429 344.457C925.109 348.931 896.793 364.323 886.302 370.288C864.901 382.439 857.072 404.73 857.012 404.949C856.794 405.566 856.217 405.963 855.601 405.963V405.983ZM821.106 393.157L854.687 402.682C856.754 397.512 865.278 378.819 884.831 367.723C894.131 362.434 923.241 346.545 933.137 341.792C936.575 340.142 938.383 338.213 938.542 336.045C938.76 332.864 935.422 328.727 929.381 324.691C919.843 318.327 905.954 313.952 901.841 316.02C892.322 320.813 865.219 339.983 864.941 340.162C864.404 340.539 863.709 340.52 863.172 340.162C862.655 339.764 862.457 339.088 862.675 338.471C867.305 325.426 870.862 310.393 868.855 307.808C865.954 308.126 855.86 328.091 851.468 344.278C847.812 357.8 826.749 385.799 821.086 393.177H821.106V393.157Z" fill="#231F20"/>
<path d="M881.592 350.283C881.354 350.283 881.096 350.224 880.857 350.085L863.351 340.241C862.636 339.843 862.377 338.929 862.775 338.213C863.172 337.497 864.086 337.238 864.802 337.636L882.308 347.48C883.023 347.877 883.281 348.792 882.884 349.508C882.606 350.005 882.109 350.264 881.592 350.264V350.283Z" fill="#231F20"/>
<path d="M342.897 435.474C342.897 435.474 313.727 402.026 308.819 387.052C303.911 372.078 290.379 346.207 286.921 351.138C283.444 356.09 294.552 382.856 294.552 382.856C294.552 382.856 266.216 364.939 256.241 360.564C246.266 356.189 201.875 380.967 225.163 390.691C235.079 394.827 264.487 408.906 274.681 414.017C297.433 425.412 306.474 447.863 306.474 447.863L342.917 435.434V435.474H342.897Z" fill="white"/>
<path d="M306.454 449.374C305.858 449.374 305.302 449.016 305.063 448.439C304.984 448.22 295.943 426.346 273.985 415.369C263.176 409.96 234.125 396.08 224.567 392.083C219.997 390.174 217.453 387.529 217.056 384.248C216.38 378.7 221.964 373.271 226.773 369.672C236.171 362.652 251.015 356.706 256.797 359.232C264.646 362.672 283.305 374.126 291.452 379.197C288.233 370.845 282.629 354.658 285.689 350.303C286.345 349.369 287.358 348.931 288.451 349.09C294.929 350.045 306.812 376.155 310.23 386.615C314.82 400.634 341.784 431.934 343.891 434.36C344.209 434.639 344.387 435.036 344.387 435.474C344.387 436.09 344.01 436.667 343.414 436.886C343.354 436.886 343.275 436.925 343.215 436.945L306.931 449.314C306.772 449.374 306.613 449.394 306.454 449.394V449.374ZM253.34 361.578C247.677 361.578 236.47 366.172 228.581 372.058C222.759 376.393 219.639 380.709 220.036 383.87C220.295 386.018 222.222 387.847 225.739 389.319C235.873 393.555 265.779 407.892 275.357 412.685C295.466 422.747 304.964 440.962 307.289 446.013L340.334 434.738C334.293 427.659 311.799 400.813 307.428 387.509C302.202 371.581 291.074 352.173 288.034 352.013C286.285 354.678 290.637 369.493 295.943 382.279C296.201 382.876 296.022 383.572 295.525 383.99C295.029 384.407 294.313 384.467 293.777 384.109C293.499 383.93 265.421 366.212 255.665 361.936C255.069 361.678 254.294 361.559 253.38 361.559H253.34V361.578Z" fill="#231F20"/>
<path d="M277.582 395.126C277.085 395.126 276.608 394.887 276.33 394.43C275.893 393.734 276.092 392.819 276.787 392.362L293.757 381.603C294.452 381.166 295.366 381.365 295.823 382.061C296.261 382.757 296.062 383.671 295.366 384.129L278.397 394.887C278.158 395.046 277.88 395.126 277.602 395.126H277.582Z" fill="#231F20"/>
<path d="M532.384 256.9C532.881 256.065 533.398 255.25 533.914 254.414C543.79 239.102 561.157 230.651 579.239 231.307C586.135 231.546 594.401 232.818 601.058 234.688C608.271 236.716 610.754 243.159 616.855 246.281C618.087 246.917 619.557 246.977 620.948 247.096C625.419 247.454 629.85 248.548 633.963 250.358C645.21 255.23 652.741 270.92 656.815 281.757C664.743 302.955 668.777 325.386 670.804 347.857C672.672 368.817 675.136 392.043 667.227 412.088C659.497 431.735 648.668 450.905 634.401 466.555C608.211 495.31 568.907 512.372 530.179 509.23C507.148 507.361 485.132 498.75 464.724 487.873C453.021 481.628 441.436 474.35 433.468 463.771C418.386 443.806 419.717 413.421 435.773 394.251C453.199 373.45 480.621 364.502 498.028 343.184C517.223 319.639 516.667 283.07 532.384 256.92V256.9Z" fill="#231F20"/>
<path d="M639.726 693.093L615.941 396.856L554.798 403.358L521.555 693.093H639.726Z" fill="#231F20"/>
<path d="M556.269 419.128C556.269 419.128 565.171 427.082 580.769 428.335C606.303 430.383 614.689 407.276 614.689 407.276C615.662 389.578 616.815 371.859 617.768 354.161C618.404 342.091 624.902 317.273 613.377 309.2C610.178 306.952 606.462 305.541 603.163 303.472C593.308 297.368 587.545 285.257 588.996 273.743C584.704 278.973 580.153 284.402 573.914 286.987C568.767 289.115 563.025 289.115 557.441 289.055C551.937 289.016 545.141 287.822 539.756 288.876C533.954 290.01 535.762 288.876 534.272 293.868C532.463 299.913 533.338 308.146 532.96 314.43C532.285 325.804 531.271 337.278 531.271 348.693C532.364 368.777 552.155 374.464 552.155 374.464L556.269 419.108V419.128Z" fill="white"/>
<path d="M583.909 429.966C582.856 429.966 581.763 429.926 580.65 429.826C564.733 428.534 555.653 420.579 555.275 420.241C554.997 419.983 554.818 419.645 554.778 419.267L550.744 375.578C546.592 374.047 530.755 367.047 529.761 348.792C529.761 340.042 530.337 331.233 530.913 322.722C531.092 319.938 531.291 317.134 531.45 314.35C531.569 312.401 531.569 310.254 531.549 307.967C531.549 302.955 531.529 297.765 532.801 293.45C533.119 292.396 533.278 291.621 533.397 291.064C533.914 288.598 534.57 288.26 537.352 287.803C537.908 287.703 538.584 287.604 539.438 287.425C543.253 286.689 547.585 286.987 551.778 287.286C553.785 287.425 555.672 287.564 557.421 287.584C562.548 287.643 568.35 287.683 573.298 285.635C579.319 283.129 583.809 277.641 587.803 272.809C588.221 272.292 588.936 272.133 589.552 272.391C590.168 272.65 590.526 273.286 590.446 273.942C589.075 284.82 594.619 296.453 603.919 302.22C605.329 303.095 606.78 303.85 608.33 304.626C610.297 305.62 612.344 306.674 614.212 307.987C624.048 314.887 621.822 332.506 620.193 345.352C619.775 348.653 619.378 351.775 619.239 354.261C618.722 363.846 618.166 373.43 617.59 383.015C617.093 391.129 616.616 399.262 616.179 407.375C616.179 407.515 616.139 407.674 616.099 407.793C616.02 408.032 607.773 429.966 583.929 429.966H583.909ZM557.699 418.372C559.627 419.903 567.893 425.809 580.888 426.863C603.998 428.753 612.304 409.304 613.198 406.978C613.635 398.924 614.112 390.87 614.609 382.836C615.185 373.251 615.761 363.686 616.258 354.102C616.397 351.516 616.795 348.335 617.232 344.974C618.762 332.883 620.868 316.299 612.503 310.433C610.794 309.219 608.946 308.285 606.979 307.291C605.449 306.515 603.859 305.7 602.349 304.765C593.228 299.118 587.505 288.797 587.267 278.138C583.75 282.215 579.696 286.212 574.47 288.399C568.966 290.686 562.826 290.626 557.421 290.587C555.573 290.587 553.626 290.427 551.579 290.288C547.585 290.01 543.452 289.712 540.014 290.368C539.14 290.547 538.425 290.666 537.848 290.746C537.312 290.845 536.755 290.925 536.477 291.004C536.438 291.183 536.378 291.442 536.318 291.68C536.179 292.297 536 293.152 535.663 294.305C534.49 298.203 534.51 303.174 534.53 307.967C534.53 310.293 534.53 312.481 534.411 314.529C534.252 317.313 534.053 320.117 533.874 322.921C533.318 331.392 532.722 340.142 532.722 348.713C533.735 367.385 551.758 372.834 552.533 373.053C553.129 373.232 553.546 373.729 553.606 374.345L557.659 418.372H557.699Z" fill="#231F20"/>
<path d="M610.595 315.583C636.169 302.299 637.143 345.71 613.178 348.613C611.569 353.803 608.966 357.681 602.508 362.215" fill="white"/>
<path d="M602.508 363.706C602.031 363.706 601.574 363.488 601.276 363.07C600.799 362.394 600.958 361.459 601.634 361.002C608.151 356.448 610.337 352.709 611.748 348.176C611.927 347.619 612.403 347.201 612.98 347.142C620.173 346.267 625.796 341.136 628.042 333.42C630.029 326.58 628.737 319.58 624.882 316.418C621.683 313.773 616.954 313.952 611.251 316.915C610.516 317.293 609.622 317.015 609.244 316.279C608.866 315.543 609.145 314.648 609.88 314.27C618.981 309.538 624.366 312.143 626.77 314.111C631.599 318.069 633.248 326.182 630.903 334.256C628.419 342.806 622.239 348.633 614.271 349.965C612.364 355.474 609.224 359.312 603.323 363.448C603.064 363.627 602.766 363.726 602.468 363.726H602.508V363.706Z" fill="#231F20"/>
<path d="M560.402 308.921C560.402 308.921 548.201 327.077 550.884 330.974C553.586 334.872 558.931 333.699 558.931 333.699" fill="white"/>
<path d="M557.083 335.329C554.937 335.329 551.718 334.773 549.672 331.81C548.678 330.398 547.645 325.228 559.17 308.066C559.627 307.39 560.561 307.191 561.236 307.668C561.912 308.126 562.091 309.06 561.634 309.737C555.434 318.964 550.983 328.489 552.116 330.1C554.222 333.142 558.574 332.227 558.613 332.207C559.388 332.028 560.203 332.545 560.382 333.341C560.561 334.136 560.044 334.932 559.249 335.111C559.15 335.111 558.295 335.31 557.083 335.31V335.329Z" fill="#231F20"/>
<path d="M557.044 375.499C557.044 375.499 571.331 379.535 589.671 369.851C589.671 369.851 580.69 396.14 555.136 396.18L552.135 374.464L557.044 375.499Z" fill="#231F20"/>
<path d="M555.156 397.691C554.421 397.691 553.785 397.134 553.685 396.398L550.685 374.683C550.625 374.206 550.784 373.729 551.142 373.391C551.5 373.053 551.996 372.913 552.473 373.033L557.381 374.067C557.381 374.067 557.441 374.067 557.481 374.067C557.62 374.107 571.47 377.805 589.015 368.539C589.552 368.26 590.208 368.32 590.685 368.718C591.142 369.115 591.32 369.752 591.122 370.328C591.022 370.607 581.504 397.631 555.176 397.671H555.156V397.691ZM553.904 376.374L556.428 394.688C574.093 393.992 583.273 379.814 586.671 372.993C570.178 380.371 557.739 377.248 556.666 376.97L553.884 376.374H553.904Z" fill="#231F20"/>
<path d="M582.927 311.416C582.938 308.066 581.755 305.347 580.284 305.342C578.814 305.337 577.612 308.049 577.601 311.398C577.59 314.748 578.773 317.467 580.244 317.472C581.715 317.477 582.916 314.766 582.927 311.416Z" fill="#231F20"/>
<path d="M548.566 309.03C548.754 305.686 547.716 302.908 546.248 302.825C544.78 302.743 543.437 305.387 543.249 308.731C543.061 312.076 544.099 314.854 545.567 314.936C547.036 315.019 548.378 312.375 548.566 309.03Z" fill="#231F20"/>
<path d="M515.633 396.915C515.633 396.915 521.614 381.166 550.745 375.578L553.964 410.557L529.225 626.218H473.408L492.603 471.109L515.633 396.915Z" fill="#0F4ECA"/>
<path d="M618.225 372.118C618.225 372.118 652.065 373.987 680.838 397.691L696.814 472.66L707.902 626.218H634.341L616.159 407.375L618.206 372.118H618.225Z" fill="#0F4ECA"/>
<path d="M412.147 469.319C386.374 448.4 332.803 400.634 332.803 400.634L286.583 439.431C287.418 445.795 390.865 591.358 433.408 583.603C475.932 575.867 536.478 527.883 536.478 527.883L519.786 390.811L435.753 468.743C429.096 474.728 419.101 474.987 412.147 469.359V469.319Z" fill="#0F4ECA"/>
<path d="M680.858 397.691C680.858 397.691 720.182 437.283 753.883 452.416C767.693 461.047 833.267 359.152 833.267 359.152L893.674 398.864C893.674 398.864 843.619 516.309 798.751 550.851C753.883 585.392 669.313 526.67 669.313 526.67L681.017 395.881L680.858 397.691Z" fill="#0F4ECA"/>
<path d="M588.042 326.48C580.69 326.48 572.384 324.492 571.291 324.134C566.303 322.463 565.548 317.929 564.932 314.27C564.793 313.455 564.654 312.66 564.475 311.884C564.396 311.546 564.257 311.407 564.058 311.307C562.707 310.671 559.229 311.745 557.183 312.719C556.447 313.077 555.553 312.759 555.196 312.023C554.838 311.287 555.156 310.393 555.891 310.035C556.924 309.538 562.25 307.131 565.33 308.623C566.383 309.14 567.098 310.035 567.356 311.208C567.555 312.043 567.694 312.898 567.833 313.773C568.509 317.77 569.145 320.276 572.205 321.31C574.252 321.986 588.32 324.989 594.5 322.622C599.289 320.793 600.58 310.83 600.66 307.131C600.68 306.316 601.415 305.62 602.19 305.68C603.005 305.68 603.66 306.376 603.64 307.211C603.64 307.827 603.203 322.503 595.553 325.406C593.486 326.202 590.824 326.48 588.002 326.48H588.042Z" fill="#231F20"/>
<path d="M544.763 324.81C540.73 324.81 536.239 324.671 534.431 324.134C530.576 322.98 529.92 312.799 529.801 308.484C529.801 307.668 530.437 306.972 531.251 306.952H531.291C532.106 306.952 532.762 307.589 532.781 308.404C532.94 314.608 534.133 320.733 535.285 321.27C537.471 321.926 546.492 321.887 552.036 321.688C552.95 321.688 553.546 322.304 553.586 323.119C553.606 323.935 552.97 324.631 552.155 324.671C551.48 324.671 548.3 324.79 544.783 324.79H544.763V324.81Z" fill="#231F20"/>
<path d="M553.805 354.32C553.03 354.32 552.394 353.724 552.315 352.948C552.255 352.133 552.851 351.417 553.686 351.337L571.649 349.886C572.483 349.806 573.199 350.423 573.258 351.258C573.318 352.073 572.722 352.789 571.887 352.869L553.924 354.32H553.805Z" fill="#231F20"/>
<path d="M476.726 600.147H476.587C475.773 600.068 475.157 599.352 475.236 598.537C480.144 543.075 489.901 468.683 490 467.947C490.099 467.132 490.835 466.535 491.669 466.655C492.484 466.754 493.06 467.51 492.961 468.325C492.861 469.081 483.105 543.394 478.217 598.795C478.157 599.571 477.501 600.147 476.726 600.147Z" fill="#231F20"/>
<path d="M706.432 610.826C705.637 610.826 704.981 610.19 704.941 609.394C703.63 573.56 695.602 473.714 695.523 472.72C695.463 471.904 696.059 471.189 696.894 471.109C697.708 471.069 698.444 471.646 698.503 472.481C698.583 473.495 706.63 573.381 707.922 609.295C707.962 610.11 707.306 610.806 706.491 610.846H706.432V610.826Z" fill="#231F20"/>
<path d="M1021.5 745.353H228.124V627.729H902.278L1021.5 745.353Z" fill="white"/>
<path d="M1021.5 746.844H228.124C227.309 746.844 226.634 746.168 226.634 745.353V627.709C226.634 626.894 227.309 626.218 228.124 626.218H902.278C902.675 626.218 903.053 626.377 903.331 626.655L1022.56 744.299C1022.99 744.717 1023.11 745.373 1022.89 745.93C1022.65 746.486 1022.12 746.864 1021.52 746.864L1021.5 746.844ZM229.614 743.861H1017.87L901.662 629.2H229.614V743.861Z" fill="#231F20"/>
<path d="M1021.5 745.373H228.124V761.878H1021.5V745.373Z" fill="white"/>
<path d="M1021.5 763.369H228.124C227.309 763.369 226.634 762.693 226.634 761.878V745.373C226.634 744.557 227.309 743.881 228.124 743.881H1021.5C1022.32 743.881 1022.99 744.557 1022.99 745.373V761.878C1022.99 762.693 1022.32 763.369 1021.5 763.369ZM229.614 760.386H1020.01V746.864H229.614V760.386Z" fill="#231F20"/>
<path d="M486.304 646.024L409.603 706.277L559.13 716.956L622.24 654.773L486.304 646.024Z" fill="white"/>
<path d="M559.13 718.447H559.031L409.524 707.769C408.908 707.729 408.391 707.311 408.212 706.715C408.033 706.118 408.212 705.482 408.709 705.104L485.41 644.87C485.688 644.652 486.066 644.532 486.423 644.552L622.339 653.302C622.915 653.342 623.432 653.719 623.651 654.276C623.849 654.833 623.71 655.45 623.293 655.867L560.184 718.05C559.905 718.328 559.528 718.487 559.13 718.487V718.447ZM413.557 705.064L558.554 715.425L618.802 656.046L486.761 647.555L413.557 705.064Z" fill="#231F20"/>
<path d="M555.931 704.508H555.832L439.648 696.096C438.833 696.036 438.217 695.32 438.277 694.505C438.336 693.69 439.131 693.093 439.866 693.133L556.05 701.545C556.865 701.604 557.481 702.32 557.422 703.135C557.362 703.931 556.706 704.527 555.931 704.527V704.508Z" fill="#231F20"/>
<path d="M552.036 691.224H551.937L453.239 684.423C452.424 684.363 451.809 683.647 451.848 682.832C451.888 682.017 452.623 681.42 453.438 681.44L552.136 688.241C552.951 688.301 553.566 689.017 553.527 689.832C553.467 690.627 552.811 691.224 552.036 691.224Z" fill="#231F20"/>
<path d="M634.162 653.183C634.162 653.183 642.766 643.876 673.168 644.532C687.296 644.85 729.164 662.171 747.624 673.784C768.866 687.167 765.865 695.062 765.865 695.062L678.851 698.721L634.182 653.163L634.162 653.183Z" fill="white"/>
<path d="M678.832 700.232C678.434 700.232 678.057 700.073 677.759 699.795L633.089 654.237C632.533 653.66 632.513 652.765 633.049 652.168C633.427 651.771 642.488 642.385 673.168 643.041C687.376 643.359 729.462 660.62 748.379 672.531C770.038 686.173 767.554 694.684 767.217 695.599C766.998 696.156 766.481 696.533 765.885 696.553L678.871 700.212H678.812H678.832V700.232ZM636.368 653.302L679.428 697.21L764.474 693.63C764.315 691.343 762.309 684.821 746.809 675.057C728.19 663.324 686.939 646.322 673.129 646.024C649.701 645.487 639.488 651.075 636.368 653.302Z" fill="#231F20"/>
<path d="M679.328 689.772C679.328 689.772 656.04 660.182 618.802 643.558C574.232 632.263 533.875 653.202 533.875 653.202L589.075 701.743C607.515 687.923 661.345 688.44 678.812 698.761C681.097 692.437 679.308 689.792 679.308 689.792C625.379 631.945 586.015 682.474 586.015 682.474L589.552 700.431" fill="white"/>
<path d="M589.075 703.215C588.718 703.215 588.38 703.096 588.082 702.837L532.881 654.296C532.504 653.978 532.325 653.481 532.384 653.004C532.444 652.506 532.742 652.089 533.179 651.85C533.596 651.631 574.55 630.771 619.16 642.086C619.239 642.086 619.319 642.126 619.398 642.166C656.537 658.751 680.242 688.519 680.481 688.818C680.521 688.858 680.56 688.917 680.58 688.957C680.898 689.474 682.567 692.636 680.203 699.218C680.044 699.636 679.726 699.974 679.308 700.113C678.891 700.252 678.434 700.212 678.057 699.993C660.55 689.673 607.635 689.633 589.97 702.897C589.711 703.096 589.393 703.195 589.075 703.195V703.215ZM587.645 682.852L590.784 698.8C610.933 686.829 658.921 686.948 677.957 696.573C678.951 692.894 678.295 691.045 678.116 690.647C660.59 671.895 642.846 662.787 625.419 663.543C604.356 664.458 590.228 679.829 587.645 682.852ZM536.557 653.56L587.704 698.522L584.585 682.733C584.505 682.315 584.585 681.878 584.863 681.52C585.499 680.704 600.62 661.654 625.24 660.56C635.295 660.143 645.469 662.767 655.563 668.455C645.767 660.361 633.129 651.592 618.305 644.95C580.372 635.385 545.161 649.623 536.537 653.56H536.557Z" fill="#231F20"/>
<path d="M679.328 689.772C679.328 689.772 693.397 673.148 730.893 675.136C768.369 677.125 767.872 695.758 767.872 695.758L678.832 698.741L679.328 689.772Z" fill="white"/>
<path d="M678.832 700.232C678.434 700.232 678.057 700.073 677.759 699.775C677.46 699.477 677.321 699.059 677.341 698.641L677.838 689.673C677.838 689.355 677.977 689.036 678.196 688.798C678.792 688.102 693.178 671.636 730.972 673.645C769.462 675.693 769.382 694.962 769.363 695.798C769.343 696.593 768.707 697.229 767.932 697.249L678.891 700.232H678.832ZM680.799 690.389L680.421 697.19L766.203 694.306C765.309 690.17 760.182 678.179 730.833 676.608C697.49 674.838 683.084 688.042 680.819 690.369L680.799 690.389Z" fill="#231F20"/>
<path d="M586.035 683.946C585.777 683.946 585.518 683.886 585.28 683.727L537.173 655.131C536.458 654.714 536.239 653.799 536.656 653.083C537.074 652.367 537.988 652.148 538.703 652.566L586.81 681.162C587.525 681.579 587.744 682.494 587.327 683.21C587.049 683.687 586.552 683.946 586.035 683.946Z" fill="#231F20"/>
<path d="M679.189 692.397C679.189 692.397 659.597 678.616 634.162 674.977C608.728 671.338 588.837 688.639 588.837 688.639C588.837 688.639 608.012 680.824 633.844 680.824C659.676 680.824 679.189 692.417 679.189 692.417V692.397Z" fill="#231F20"/>
<path d="M679.189 693.889C678.931 693.889 678.673 693.829 678.434 693.69C678.236 693.57 658.961 682.315 633.864 682.315C608.767 682.315 589.612 689.951 589.413 690.031C588.738 690.309 587.963 690.051 587.585 689.434C587.208 688.818 587.327 688.002 587.883 687.525C588.718 686.789 608.589 669.807 634.401 673.526C659.915 677.185 679.269 690.627 680.084 691.204C680.739 691.661 680.918 692.556 680.481 693.232C680.203 693.67 679.726 693.908 679.229 693.908H679.189V693.889ZM627.108 675.952C615.305 675.952 605.111 680.207 598.375 683.986C606.542 681.798 619.061 679.292 633.844 679.292C641.137 679.292 647.893 680.187 653.874 681.48C647.913 679.332 641.157 677.463 633.944 676.429C631.619 676.091 629.334 675.952 627.108 675.952Z" fill="#231F20"/>
<path d="M438.217 322.722C428.142 322.722 416.856 320.932 405.589 315.643C392.256 319.997 378.128 322.205 363.563 322.205C304.129 322.205 255.764 284.919 255.764 239.102C255.764 193.286 304.129 156 363.563 156C422.996 156 471.361 193.286 471.361 239.102C471.361 259.068 462.082 278.277 445.191 293.371C452.007 304.586 461.664 310.989 473.925 312.441C474.58 312.52 475.117 313.018 475.216 313.674C475.316 314.33 474.998 314.966 474.401 315.265C474.163 315.384 458.684 322.742 438.197 322.742L438.217 322.722ZM405.689 312.54C405.907 312.54 406.126 312.58 406.344 312.68C432.077 325.068 458.048 318.168 468.42 314.449C457.352 311.745 448.291 304.685 442.012 293.788C441.655 293.172 441.794 292.376 442.33 291.919C459.141 277.283 468.4 258.531 468.4 239.083C468.4 194.896 421.386 158.963 363.582 158.963C305.779 158.963 258.764 194.916 258.764 239.083C258.764 283.249 305.779 319.202 363.582 319.202C378.028 319.202 392.037 316.975 405.231 312.6C405.39 312.54 405.549 312.52 405.708 312.52H405.689V312.54Z" fill="#212121"/>
<path d="M326.856 228.078C329.296 218.074 334.298 210.591 341.862 205.63C349.426 200.587 358.373 198.066 368.702 198.066C377.567 198.066 384.887 199.815 390.662 203.312C396.437 206.809 399.324 212.055 399.324 219.05C399.324 224.581 397.738 229.257 394.566 233.08C391.475 236.821 386.514 240.359 379.682 243.694C375.29 245.809 372.321 247.476 370.776 248.696C369.231 249.835 368.295 251.136 367.97 252.6L367.848 253.21H346.132L346.376 251.746C347.108 247.435 348.491 243.979 350.524 241.376C352.557 238.773 356.136 236.374 361.26 234.178C363.781 233.121 365.571 232.348 366.628 231.86C367.767 231.291 369.271 230.477 371.142 229.42C373.094 228.281 374.477 227.183 375.29 226.126C376.185 224.987 376.632 223.808 376.632 222.588C376.632 220.636 375.575 219.172 373.46 218.196C371.427 217.139 368.865 216.61 365.774 216.61C356.746 216.61 350.849 220.88 348.084 229.42L326.856 228.078ZM339.544 284.93L343.204 261.872H368.092L364.432 284.93H339.544Z" fill="#212121"/>
<defs>
<filter id="filter0_f_112_11" x="38.4204" y="0.174355" width="1163.16" height="1031.65" filterUnits="userSpaceOnUse" color-interpolation-filters="sRGB">
<feFlood flood-opacity="0" result="BackgroundImageFix"/>
<feBlend mode="normal" in="SourceGraphic" in2="BackgroundImageFix" result="shape"/>
<feGaussianBlur stdDeviation="63.9931" result="effect1_foregroundBlur_112_11"/>
</filter>
<linearGradient id="paint0_linear_112_11" x1="264.678" y1="517.265" x2="1186.82" y2="517.266" gradientUnits="userSpaceOnUse">
<stop stop-color="#C800FF"/>
<stop offset="1" stop-color="#0F4ECA"/>
</linearGradient>
</defs>
</svg>
