<svg width="1240" height="1032" viewBox="0 0 1240 1032" fill="none" xmlns="http://www.w3.org/2000/svg">
<g filter="url(#filter0_f_115_470)">
<path d="M565.392 154.134C593.562 119.503 646.438 119.503 674.608 154.134L775.366 278.003C788.851 294.582 809.138 304.137 830.508 303.975L1002.53 302.671C1062.89 302.213 1095.79 372.961 1056.55 418.825L1012.56 470.235C990.016 496.581 990.016 535.419 1012.56 561.765L1056.55 613.175C1095.79 659.039 1062.89 729.787 1002.53 729.329L830.508 728.025C809.138 727.863 788.851 737.418 775.366 753.997L674.608 877.866C646.438 912.497 593.562 912.497 565.392 877.866L464.634 753.997C451.149 737.418 430.862 727.863 409.492 728.025L237.472 729.329C177.111 729.787 144.209 659.039 183.453 613.175L227.442 561.765C249.984 535.419 249.984 496.581 227.442 470.235L183.453 418.825C144.209 372.961 177.111 302.213 237.472 302.671L409.492 303.975C430.862 304.137 451.149 294.582 464.634 278.003L565.392 154.134Z" fill="url(#paint0_linear_115_470)" fill-opacity="0.25"/>
</g>
<ellipse cx="338.496" cy="653.807" rx="181.337" ry="181.447" fill="white" fill-opacity="0.2"/>
<ellipse cx="607.911" cy="506.057" rx="257.326" ry="256.618" fill="white" fill-opacity="0.2"/>
<ellipse cx="879.053" cy="543.211" rx="139.889" ry="139.974" fill="white" fill-opacity="0.2"/>
<path d="M575.574 406.667C575.574 406.667 490.042 373.174 461.117 396.287C432.191 419.262 345.276 667.69 361.192 709.486C377.108 751.145 496.962 730.108 496.962 730.108C496.962 730.108 833.551 750.038 867.736 737.305C918.806 718.067 805.733 418.57 788.71 402.377C771.686 386.322 694.044 413.864 694.044 413.864" fill="#0F4ECA"/>
<path d="M504.989 661.323C504.851 661.323 504.436 661.323 504.297 661.185C464.3 633.782 412.953 640.84 412.4 640.84C411.708 640.978 411.154 640.425 410.877 639.733C410.601 639.041 411.293 638.487 411.985 638.21C412.538 638.21 464.992 630.875 505.82 658.832C506.373 659.247 506.512 659.939 506.235 660.631C505.82 661.046 505.543 661.185 505.128 661.185L504.989 661.323Z" fill="#231F20"/>
<path d="M752.864 661.323C752.449 661.323 752.172 661.185 751.757 660.77C751.342 660.216 751.342 659.524 751.895 658.97C792.862 631.014 845.177 638.072 845.731 638.349C846.423 638.487 846.976 639.041 846.838 639.871C846.699 640.702 846.146 641.117 845.315 640.978C844.762 640.978 793.415 633.782 753.418 661.323C753.418 661.323 753.279 661.462 752.864 661.462V661.323Z" fill="#231F20"/>
<path d="M479.109 624.37C478.417 624.37 477.863 623.678 477.863 623.125L486.859 470.885C486.859 470.193 487.551 469.639 488.105 469.639C488.797 469.639 489.35 470.331 489.35 470.885L480.354 623.125C480.354 623.817 479.801 624.37 479.109 624.37Z" fill="#231F20"/>
<path d="M752.864 624.37C752.172 624.37 751.618 623.817 751.618 623.125V477.251C751.618 476.559 752.172 476.006 752.864 476.006C753.556 476.006 754.109 476.559 754.109 477.251V623.125C754.109 623.817 753.556 624.37 752.864 624.37Z" fill="#231F20"/>
<path d="M545.956 397.118C545.956 397.118 575.158 550.465 630.38 623.125C630.38 623.125 705.116 489.292 719.648 405.975C719.648 405.975 663.042 416.77 642.006 417.186C620.969 417.601 546.094 397.256 546.094 397.256L545.956 397.118Z" fill="#231F20"/>
<path d="M630.242 624.37C629.827 624.37 629.55 624.232 629.135 623.817C574.605 551.849 544.987 398.778 544.711 397.394C544.572 396.979 544.711 396.426 545.126 396.287C545.541 395.872 545.818 395.872 546.371 395.872C547.063 396.01 620.554 415.802 641.591 415.802H642.006C662.627 415.663 718.818 404.868 719.51 404.591C719.925 404.591 720.479 404.591 720.617 405.006C721.032 405.422 721.032 405.698 721.032 406.114C706.639 488.738 632.318 622.433 631.626 623.678C631.487 624.094 630.934 624.37 630.38 624.37H630.242ZM547.617 398.778C551.215 416.909 580.141 553.094 630.242 620.634C638.823 604.718 703.871 484.586 717.987 407.498C707.884 409.297 660.967 418.154 642.006 418.293H641.591C622.076 418.293 559.935 401.962 547.617 398.778Z" fill="#231F20"/>
<path d="M612.665 453.862L624.567 474.345L594.811 562.506L630.241 623.125L662.765 559.876L639.237 474.622L651.555 453.862L632.041 434.209L612.665 453.862Z" fill="white"/>
<path d="M630.241 624.37C629.826 624.37 629.273 624.232 629.134 623.817L593.704 563.474C593.565 563.059 593.565 562.782 593.565 562.367L623.183 474.622L611.696 454.554C611.281 454 611.557 453.446 611.834 453.031L631.072 433.655C631.21 433.24 631.625 433.24 632.041 433.24C632.456 433.24 632.733 433.378 633.009 433.655L652.524 453.031C652.939 453.446 653.077 454.138 652.662 454.692L640.621 475.175L664.011 559.876V560.845L631.487 623.955C631.349 624.094 630.933 624.509 630.38 624.509L630.241 624.37ZM596.195 562.506L630.241 620.218L661.52 559.461L638.13 474.76C638.13 474.345 638.13 474.068 638.269 473.791L650.171 453.723L632.041 435.87L614.325 453.723L625.674 473.514C625.813 473.93 625.813 474.206 625.813 474.622L596.195 562.367V562.506Z" fill="#231F20"/>
<path d="M571.145 391.443L683.664 391.858L681.588 434.762H602.285L563.671 416.355L571.145 391.443Z" fill="#231F20"/>
<path d="M681.588 436.008H602.285C602.146 436.008 601.87 436.008 601.731 435.87L563.118 417.462C562.564 417.047 562.149 416.494 562.426 415.94L569.899 391.028C570.038 390.474 570.591 390.059 571.145 390.059L683.526 390.474C684.217 390.474 684.771 391.028 684.771 391.72L682.695 434.624C682.695 435.316 682.142 435.87 681.45 435.87L681.588 436.008ZM602.423 433.517H680.342L682.142 393.104L572.114 392.689L565.194 415.525L602.423 433.378V433.517Z" fill="#231F20"/>
<path d="M712.866 282.384C718.956 269.098 720.478 251.244 722.97 236.989C724.077 230.622 727.398 222.18 726.43 215.537C725.738 210.97 722.831 207.371 722.416 202.25C722.278 197.683 722.278 192.701 719.648 189.102C717.018 185.504 710.929 183.566 708.161 187.303C711.759 175.954 713.974 164.052 714.527 152.15C704.839 156.578 694.044 158.378 683.387 157.27C687.539 153.81 691.276 149.658 694.182 144.814C684.91 151.734 671.9 149.52 660.413 148.136C633.84 144.814 606.16 148.136 583.047 161.422C575.574 165.574 568.238 172.079 567.27 180.66C561.595 179.138 555.229 181.906 551.215 186.334C547.34 190.902 544.849 196.438 543.742 202.25C535.853 236.02 548.724 265.084 552.184 298.577C577.234 300.099 602.285 302.175 627.474 301.898C647.542 301.483 702.071 306.05 712.866 282.384Z" fill="white"/>
<path d="M648.095 303.421C644.22 303.421 640.622 303.421 637.3 303.282H627.612C607.129 303.698 586.507 302.175 566.439 300.93L552.184 299.961C551.63 299.961 551.077 299.407 551.077 298.854C549.97 288.058 548.032 277.678 545.818 267.575C541.389 245.846 537.375 225.363 542.773 202.112C544.434 194.777 546.925 189.518 550.662 185.504C554.675 180.937 560.488 178.584 566.578 179.276C567.823 172.356 573.221 166.128 582.632 160.592C604.084 148.136 631.764 143.43 660.69 147.029L663.181 147.444C674.114 148.966 685.325 150.35 693.49 144.122C694.044 143.707 694.598 143.707 695.151 144.122C695.705 144.538 695.705 145.23 695.29 145.783C692.937 149.797 690.03 153.395 686.709 156.578C695.982 157.132 705.531 155.333 713.974 151.319C714.666 150.904 715.496 151.319 715.634 152.011C715.634 152.15 715.773 152.426 715.773 152.565C715.219 163.36 713.42 174.155 710.237 184.535C710.929 184.397 711.898 184.12 712.59 184.12C715.634 184.258 718.679 185.919 720.478 188.549C722.97 192.147 723.246 196.714 723.385 201.143V202.389C723.523 204.742 724.354 207.371 725.461 209.586C726.43 211.662 727.122 213.599 727.537 215.814C728.229 220.381 726.845 225.64 725.461 231.038C724.907 233.39 724.354 235.605 723.938 237.681C723.523 240.172 722.97 243.217 722.693 245.846C720.894 258.302 718.818 272.419 713.974 283.353C705.808 301.483 673.007 303.421 648.234 303.421H648.095ZM629.826 300.653H637.162C659.998 301.068 702.625 301.622 711.621 281.83C716.326 271.174 718.541 257.334 720.202 245.154C720.617 242.248 721.17 239.48 721.447 236.989C721.862 234.774 722.416 232.56 722.97 230.207C724.215 225.225 725.461 220.104 724.769 216.09C724.354 214.291 723.8 212.492 722.97 210.554C721.724 208.063 720.894 205.434 720.755 202.666V201.42C720.617 197.406 720.34 193.393 718.264 190.071C717.018 187.995 714.804 187.026 712.451 186.75C710.929 186.611 709.683 187.165 708.853 188.272C708.438 188.826 707.607 188.964 707.054 188.41C706.638 187.995 706.5 187.442 706.638 186.888C709.96 176.231 712.174 165.298 712.866 154.226C703.594 158.101 693.352 159.762 683.11 158.654C682.418 158.654 681.865 157.962 682.003 157.132C682.003 156.717 682.142 156.578 682.557 156.163C685.325 153.949 687.678 151.458 689.892 148.551C681.726 152.011 671.623 150.766 662.489 149.52L659.998 149.105C631.626 145.506 604.361 150.212 583.601 162.253C574.328 167.789 569.207 173.74 568.654 180.383C568.654 181.075 567.962 181.629 567.131 181.49H566.993C561.457 180.383 555.782 182.459 552.184 186.611C548.862 190.21 546.51 195.192 544.987 201.974C539.866 224.394 543.88 244.739 548.032 266.33C550.108 276.156 552.046 286.259 553.153 296.916L566.301 297.885C586.23 299.13 606.852 300.653 627.335 300.238L630.103 300.791L629.826 300.653Z" fill="#231F20"/>
<path d="M575.573 422.306C575.573 422.306 596.472 432.963 632.041 434.209C667.748 435.454 673.699 425.766 673.699 425.766L672.73 406.529L670.654 362.102L668.855 320.582L587.337 317.676L583.462 351.446L582.217 362.379L575.435 422.168L575.573 422.306Z" fill="white"/>
<path d="M638.131 435.731C636.331 435.731 634.117 435.731 632.041 435.593C596.334 434.347 575.159 423.69 575.02 423.552C574.467 423.414 574.328 422.86 574.328 422.306L586.231 317.814C586.231 317.122 586.923 316.707 587.476 316.707L668.994 319.475C669.686 319.475 670.239 320.029 670.239 320.721L674.945 425.766C674.945 425.905 674.945 426.32 674.807 426.458C674.391 427.012 668.717 435.731 638.131 435.731ZM576.819 421.614C580.833 423.414 600.763 431.856 632.041 432.963C662.766 434.07 670.931 426.874 672.454 425.351L667.887 321.828L588.722 319.06L576.819 421.614Z" fill="#231F20"/>
<path d="M692.937 227.439C696.951 227.854 695.843 239.203 695.843 245.154V275.326C695.843 287.228 696.258 299.13 695.843 311.033C695.705 315.185 695.151 319.475 694.182 323.627C687.262 352.553 660.966 372.482 631.349 371.375H624.014C596.195 370.268 572.529 351.03 565.47 324.181C563.948 318.368 563.394 312.417 563.671 306.466C563.81 299.546 563.671 292.626 563.671 285.567C563.671 278.509 559.104 255.396 569.346 251.382C572.667 250.137 576.266 250.275 579.726 249.722C589.967 248.476 599.24 243.078 605.468 234.913L603.807 244.601C621.661 246.262 639.653 243.632 656.399 237.404C664.565 234.359 673.007 229.515 676.467 221.488L676.052 239.342C680.204 238.788 683.249 234.913 686.155 231.73C689.062 228.546 691.276 227.162 692.798 227.301L692.937 227.439Z" fill="white"/>
<path d="M633.563 372.621H624.014C595.642 371.375 571.56 351.999 564.363 324.596C562.841 318.783 562.149 312.694 562.287 306.466C562.426 301.898 562.287 297.193 562.287 292.626V285.706C562.287 283.906 562.149 281.692 561.872 278.924C560.903 268.267 559.658 253.735 568.792 250.275C571.283 249.306 574.051 249.03 576.819 248.753C577.788 248.753 578.619 248.614 579.587 248.614C589.414 247.507 598.41 242.386 604.499 234.359C604.915 233.806 605.468 233.806 606.022 233.944C606.575 234.082 606.991 234.636 606.714 235.466L605.191 243.632C622.353 244.878 639.515 242.386 655.707 236.297C666.364 232.283 672.315 227.578 674.945 221.073C675.083 220.381 676.052 220.104 676.606 220.381C677.159 220.658 677.298 221.073 677.298 221.626V237.681C679.789 236.574 682.003 234.221 684.218 231.591L684.91 230.622C688.231 227.024 690.584 225.363 692.522 225.64C697.089 226.194 696.951 234.221 696.674 241.418V274.91C696.674 278.924 696.674 282.799 696.812 286.813C696.812 294.702 696.951 302.729 696.812 310.618C695.843 345.356 667.61 372.621 633.148 372.621H633.563ZM603.669 239.618C597.441 245.985 588.999 250.275 580.141 251.382C579.172 251.521 578.342 251.521 577.235 251.521C574.743 251.521 572.252 252.074 569.899 252.766C562.564 255.534 563.671 269.098 564.64 278.786C564.779 281.554 565.055 283.906 565.055 285.706V292.626C565.055 297.193 565.194 301.898 565.055 306.466C563.81 340.097 590.106 368.607 623.737 369.853H631.349C660.413 370.96 686.155 351.446 693.075 323.212C694.044 319.198 694.598 315.046 694.736 311.033C694.875 303.144 694.875 295.117 694.736 287.228C694.736 283.214 694.736 279.339 694.598 275.326V241.694C694.598 237.542 695.013 228.685 692.799 228.546C692.245 228.546 690.723 228.685 687.263 232.698L686.571 233.39C683.803 236.435 680.896 240.034 676.467 240.587C675.775 240.587 675.222 240.172 674.945 239.48C674.945 239.342 675.083 226.47 675.083 226.47C671.485 231.453 665.534 235.19 656.815 238.511C639.93 244.878 621.661 247.507 603.807 245.846C603.392 245.846 603.115 245.708 602.839 245.293C602.562 244.878 602.423 244.739 602.7 244.324L603.669 239.342V239.618Z" fill="#231F20"/>
<path d="M630.657 267.575C630.657 267.575 651.14 312.97 642.006 313.801C632.871 314.631 620.139 307.711 620.139 307.711" fill="white"/>
<path d="M640.345 315.046C631.211 315.046 619.862 309.234 619.308 308.818C618.755 308.403 618.339 307.711 618.755 307.158C619.17 306.604 619.862 306.189 620.415 306.604C620.554 306.604 633.01 313.247 641.591 312.417C642.006 312.417 642.144 312.278 642.283 312.002C645.051 307.296 635.639 282.522 629.135 268.129C628.719 267.437 629.135 266.606 629.827 266.468C630.519 266.053 631.349 266.468 631.487 267.022C633.287 271.035 648.787 305.774 644.635 313.247C644.082 314.216 642.975 314.908 641.867 314.908C641.452 314.908 640.899 314.908 640.207 314.908L640.345 315.046Z" fill="#231F20"/>
<path d="M606.713 289.442C609.159 289.442 611.142 285.787 611.142 281.277C611.142 276.767 609.159 273.111 606.713 273.111C604.268 273.111 602.285 276.767 602.285 281.277C602.285 285.787 604.268 289.442 606.713 289.442Z" fill="#231F20"/>
<path d="M660.966 289.442C663.412 289.442 665.395 285.787 665.395 281.277C665.395 276.767 663.412 273.111 660.966 273.111C658.52 273.111 656.538 276.767 656.538 281.277C656.538 285.787 658.52 289.442 660.966 289.442Z" fill="#231F20"/>
<path d="M683.664 391.858C682.003 391.858 631.625 434.209 631.625 434.209L662.904 470.608L696.12 406.944L683.664 391.72V391.858Z" fill="white"/>
<path d="M662.765 472.13C662.35 472.13 662.073 471.992 661.797 471.715L630.518 435.316C630.38 435.178 630.103 434.762 630.103 434.347C630.103 433.932 630.241 433.655 630.518 433.378C681.311 390.613 682.833 390.613 683.387 390.613C683.941 390.613 684.079 390.751 684.356 391.028L696.95 406.39C697.365 406.806 697.365 407.359 697.089 407.913L663.873 471.3C663.734 471.715 663.319 471.854 662.765 471.992V472.13ZM633.286 434.486L662.489 468.532L694.459 407.359L683.11 393.658C678.128 397.118 651.555 419.262 633.148 434.624L633.286 434.486Z" fill="#231F20"/>
<path d="M571.145 391.443C572.805 391.443 632.041 434.209 632.041 434.209L595.78 470.608L559.796 401.131L571.145 391.443Z" fill="white"/>
<path d="M595.919 472.13H595.78C595.365 472.13 595.088 471.715 594.811 471.438L558.827 401.962C558.689 401.408 558.689 400.854 559.243 400.301L570.591 390.613C570.73 390.474 571.145 390.198 571.56 390.198C572.114 390.198 573.636 390.198 633.148 433.378C633.563 433.517 633.702 433.932 633.702 434.347C633.702 434.762 633.563 435.039 633.287 435.454L597.026 471.854C596.611 471.992 596.334 472.269 595.919 472.269V472.13ZM561.457 401.546L596.195 468.67L629.965 434.486C608.098 418.708 576.404 395.872 571.283 392.966L561.457 401.546Z" fill="#231F20"/>
<path d="M631.487 353.106H629.688C605.33 351.446 600.209 323.627 600.07 323.35C600.07 322.935 600.07 322.658 600.209 322.243C600.347 321.828 600.762 321.69 601.177 321.69L666.225 319.475C666.641 319.475 667.194 319.614 667.333 320.029C667.471 320.444 667.748 320.721 667.471 321.274C666.917 322.52 654.461 353.106 631.487 353.106ZM602.838 324.181C604.361 329.717 610.45 349.093 629.688 350.477C648.926 351.999 661.105 328.886 664.288 322.105L602.838 324.181Z" fill="#231F20"/>
<path d="M544.849 236.158H563.671V318.091H544.849C535.714 318.091 528.241 310.618 528.241 301.483V253.043C528.241 243.77 535.576 236.158 544.849 236.158Z" fill="white"/>
<path d="M563.671 319.198H551.492C537.929 319.198 526.857 308.265 526.857 294.563V259.41C526.857 245.846 537.791 234.774 551.492 234.774H563.671C564.363 234.774 564.917 235.328 564.917 236.02V317.953C564.917 318.645 564.363 319.198 563.671 319.198ZM551.492 237.404C539.313 237.404 529.348 247.23 529.348 259.548V294.702C529.348 306.881 539.175 316.846 551.492 316.846H562.426V237.542H551.492V237.404Z" fill="#231F20"/>
<path d="M715.081 315.738H696.258V233.806H715.081C724.215 233.806 731.689 241.279 731.689 250.414V298.992C731.689 308.126 724.215 315.6 715.081 315.6V315.738Z" fill="white"/>
<path d="M708.299 317.122H696.12C695.428 317.122 694.875 316.569 694.875 315.877V233.944C694.875 233.252 695.428 232.698 696.12 232.698H708.299C721.862 232.698 732.935 243.632 732.935 257.334V292.487C732.935 306.189 722.001 317.122 708.299 317.122ZM697.366 314.493H708.299C720.478 314.493 730.443 304.666 730.443 292.349V257.195C730.443 245.016 720.617 235.051 708.299 235.051H697.366V314.354V314.493Z" fill="#231F20"/>
<path d="M708.991 256.503C707.469 256.503 706.5 255.396 706.5 254.012C706.5 211.246 679.789 176.508 646.85 176.508H613.772C580.833 176.508 554.122 211.246 554.122 254.012C554.122 296.778 553.014 256.503 551.63 256.503C550.246 256.503 549.139 255.396 549.139 254.012C549.139 208.478 578.203 171.387 613.91 171.387H646.988C682.695 171.387 711.759 208.478 711.759 254.012C711.759 299.546 710.652 256.503 709.268 256.503H708.991Z" fill="#231F20"/>
<path d="M578.48 342.865C566.301 342.865 556.198 342.311 554.537 340.374C550.108 335.391 548.724 311.863 548.447 309.095C548.447 308.403 549.001 307.85 549.693 307.85C550.385 307.85 550.938 308.265 550.938 308.957C551.354 316.154 553.014 335.114 556.198 338.713C558.966 341.481 596.472 340.512 631.21 338.298C631.902 338.298 632.456 338.851 632.733 339.543C632.733 340.235 632.179 340.789 631.487 340.789C624.152 341.204 598.271 342.865 578.48 342.865Z" fill="#231F20"/>
<path d="M598.825 334.838H629.688C631.902 334.838 633.701 336.637 633.701 338.851V342.173C633.701 344.387 631.902 346.186 629.688 346.186H598.825C596.61 346.186 594.811 344.387 594.811 342.173V338.851C594.811 336.498 596.61 334.838 598.825 334.838Z" fill="#231F20"/>
<path d="M628.027 347.294H600.485C596.61 347.432 593.289 344.526 593.15 340.65C593.012 336.775 595.918 333.454 599.793 333.315H628.165C632.041 333.454 634.947 336.775 634.809 340.65C634.393 344.11 631.764 347.017 628.165 347.294H628.027ZM600.209 336.083C597.856 335.945 595.78 337.744 595.641 340.097C595.503 342.45 597.302 344.526 599.655 344.664H627.75C630.103 344.526 631.902 342.45 631.764 340.097C631.625 337.882 629.965 336.222 627.75 336.083H600.209Z" fill="#231F20"/>
<path d="M614.879 292.072H587.061C577.926 292.072 570.591 284.598 570.591 275.464V260.794C570.591 260.102 571.145 259.548 571.837 259.548H630.38C631.072 259.548 631.626 260.102 631.626 260.794V275.464C631.626 284.598 624.152 292.072 614.741 292.072C614.833 292.072 614.833 292.072 614.741 292.072H614.879ZM573.221 262.178V275.326C573.221 282.938 579.449 289.442 587.061 289.442H614.879C622.491 289.442 628.996 283.214 628.996 275.326V262.178H573.221Z" fill="#231F20"/>
<path d="M682.834 292.072H655.015C645.881 292.072 638.407 284.598 638.407 275.464V260.794C638.407 260.102 638.961 259.548 639.653 259.548H698.196C698.888 259.548 699.442 260.102 699.442 260.794V275.464C699.442 284.598 691.968 292.072 682.834 292.072ZM641.037 262.178V275.326C641.037 282.938 647.265 289.442 655.154 289.442H682.972C690.584 289.442 697.089 283.214 697.089 275.326V262.178H641.175H641.037Z" fill="#231F20"/>
<path d="M639.791 268.821C639.653 268.821 639.238 268.821 639.099 268.682C636.608 267.022 634.532 266.33 633.01 266.883C632.456 267.022 631.902 267.575 631.764 268.129C631.626 268.821 630.795 269.236 630.103 268.821C629.411 268.682 628.996 267.852 629.411 267.16C629.965 265.914 630.934 264.807 632.318 264.254C634.532 263.562 637.3 264.254 640.483 266.468C641.037 266.883 641.175 267.714 640.898 268.267C640.76 268.821 640.206 268.959 639.791 268.821Z" fill="#231F20"/>
<path d="M571.975 268.821H563.81C563.118 268.821 562.564 268.267 562.564 267.575C562.564 266.883 563.118 266.33 563.81 266.33H571.975C572.667 266.33 573.221 266.883 573.221 267.575C573.221 268.267 572.529 268.821 571.975 268.821Z" fill="#231F20"/>
<path d="M785.803 746.993H457.103L427.347 532.196H815.421L785.803 746.993Z" fill="#231F20"/>
<path d="M785.803 748.238H457.103C456.411 748.238 455.996 747.685 455.858 747.131L426.24 532.196C426.102 531.504 426.655 530.95 427.347 530.674H815.421C815.836 530.674 816.113 530.812 816.39 531.089C816.528 531.504 816.805 531.781 816.805 532.058L787.187 746.854C787.049 747.823 786.495 748.377 785.942 748.377L785.803 748.238ZM458.211 745.747H784.696L813.898 533.58H428.731L458.211 745.747Z" fill="#231F20"/>
<path d="M451.152 746.993H791.201C794.246 746.993 796.875 749.484 796.875 752.667V757.234C796.875 760.279 794.384 762.909 791.201 762.909H451.152C448.107 762.909 445.478 760.417 445.478 757.234V752.667C445.478 749.622 447.969 746.993 451.152 746.993Z" fill="#231F20"/>
<path d="M788.71 764.154H453.505C448.384 764.154 444.232 760.002 444.232 754.882C444.232 749.761 448.384 745.609 453.505 745.609H788.986C794.107 745.609 798.259 749.761 798.259 754.882C798.259 760.002 793.83 764.154 788.71 764.154ZM453.505 748.238C449.906 748.238 446.723 751.145 446.723 755.02C446.723 758.895 449.63 761.802 453.505 761.802H788.986C792.585 761.802 795.768 758.895 795.768 755.02C795.768 751.145 792.862 748.238 788.986 748.238H453.505Z" fill="#231F20"/>
<path d="M773.762 748.238H453.505C452.813 748.238 452.259 747.685 452.259 746.993C452.259 746.301 452.813 745.747 453.505 745.747H773.901C774.593 745.747 775.146 746.301 775.146 746.993C775.008 747.685 774.454 748.238 773.624 748.238H773.762Z" fill="white"/>
<path d="M621.522 671.288C605.468 671.288 592.32 658.14 592.32 642.086C592.32 626.031 605.468 612.883 621.522 612.883C637.577 612.883 650.725 626.031 650.725 642.086C650.725 658.14 637.577 671.288 621.522 671.288ZM621.522 615.374C606.713 615.374 594.811 627.277 594.811 642.086C594.811 656.894 606.713 668.797 621.522 668.797C636.331 668.797 648.233 656.894 648.233 642.086C648.095 627.277 636.193 615.374 621.522 615.374Z" fill="white"/>
<path d="M619.942 634.3H621.328L618.976 649H618.22L620.488 634.804L611.143 649H610.009L605.2 634.888L602.953 649H602.197L604.528 634.3H605.809L610.639 648.496L619.942 634.3ZM634.895 649L633.887 646.06H627.188L626.18 649H622.127L627.503 634.3H633.698L639.095 649H634.895ZM628.259 642.952H632.816L630.548 636.337L628.259 642.952Z" fill="white"/>
<defs>
<filter id="filter0_f_115_470" x="38.4201" y="0.174355" width="1163.16" height="1031.65" filterUnits="userSpaceOnUse" color-interpolation-filters="sRGB">
<feFlood flood-opacity="0" result="BackgroundImageFix"/>
<feBlend mode="normal" in="SourceGraphic" in2="BackgroundImageFix" result="shape"/>
<feGaussianBlur stdDeviation="63.9931" result="effect1_foregroundBlur_115_470"/>
</filter>
<linearGradient id="paint0_linear_115_470" x1="264.678" y1="517.265" x2="1186.82" y2="517.266" gradientUnits="userSpaceOnUse">
<stop stop-color="#C800FF"/>
<stop offset="1" stop-color="#0F4ECA"/>
</linearGradient>
</defs>
</svg>
