<svg width="293" height="32" viewBox="0 0 293 32" fill="none" xmlns="http://www.w3.org/2000/svg">
<path d="M35.884 1.6H38.656L33.952 31H32.44L36.976 2.608L18.286 31H16.018L6.4 2.776L1.906 31H0.394L5.056 1.6H7.618L17.278 29.992L35.884 1.6ZM54.367 8.488C57.419 8.488 59.603 9.118 60.919 10.378C62.235 11.638 62.725 13.36 62.389 15.544L59.953 31H58.693L59.533 25.708C58.553 27.5 57.055 28.914 55.039 29.95C53.051 30.986 50.741 31.504 48.109 31.504C45.617 31.504 43.783 31.042 42.607 30.118C41.459 29.166 40.885 27.934 40.885 26.422C40.885 22.082 44.399 19.618 51.427 19.03L60.499 18.274L61.003 15.292C61.255 13.696 60.807 12.366 59.659 11.302C58.539 10.21 56.705 9.664 54.157 9.664C51.945 9.664 50.027 10.126 48.403 11.05C46.779 11.946 45.743 13.29 45.295 15.082H43.867C44.371 12.898 45.547 11.26 47.395 10.168C49.243 9.048 51.567 8.488 54.367 8.488ZM48.571 30.328C51.735 30.328 54.325 29.502 56.341 27.85C58.385 26.198 59.617 23.986 60.037 21.214L60.331 19.492L51.343 20.248C45.323 20.752 42.313 22.726 42.313 26.17C42.313 27.374 42.817 28.368 43.825 29.152C44.861 29.936 46.443 30.328 48.571 30.328ZM79.3894 8.572C80.0894 8.572 80.9994 8.642 82.1194 8.782L81.8674 10.252C80.8874 10.112 79.9634 10.042 79.0954 10.042C73.8874 10.042 70.7374 13.402 69.6454 20.122L67.9234 31H66.4954L70.0654 8.992H71.3254L70.4854 14.284C71.3814 12.464 72.5994 11.064 74.1394 10.084C75.6794 9.076 77.4294 8.572 79.3894 8.572ZM107.161 8.992L93.259 19.702L104.221 31H102.079L91.957 20.374H86.707L85.027 31H83.599L88.513 0.0879974H89.941L86.917 19.198H91.873L104.977 8.992H107.161ZM119.915 8.488C123.219 8.488 125.641 9.468 127.181 11.428C128.721 13.388 129.197 16.258 128.609 20.038L128.567 20.374H108.449C108.393 20.99 108.365 21.48 108.365 21.844C108.365 24.504 109.121 26.59 110.633 28.102C112.145 29.586 114.189 30.328 116.765 30.328C118.837 30.328 120.671 29.88 122.267 28.984C123.863 28.088 125.081 26.912 125.921 25.456L127.307 25.582C126.383 27.402 124.997 28.844 123.149 29.908C121.301 30.972 119.117 31.504 116.597 31.504C113.573 31.504 111.207 30.706 109.499 29.11C107.791 27.486 106.937 25.162 106.937 22.138C106.937 17.854 108.169 14.508 110.633 12.1C113.097 9.692 116.191 8.488 119.915 8.488ZM119.705 9.664C116.905 9.664 114.469 10.518 112.397 12.226C110.353 13.934 109.079 16.258 108.575 19.198H127.265C127.713 16.314 127.237 14.004 125.837 12.268C124.437 10.532 122.393 9.664 119.705 9.664ZM139.233 10.168L136.797 25.456C136.489 27.304 136.531 28.564 136.923 29.236C137.343 29.908 138.253 30.244 139.653 30.244C140.269 30.244 141.305 30.16 142.761 29.992L142.593 31.126C141.529 31.322 140.465 31.42 139.401 31.42C137.385 31.42 136.111 31 135.579 30.16C135.075 29.292 134.991 27.808 135.327 25.708L137.805 10.168H132.261L132.429 9.076H136.965C137.413 9.076 137.735 8.992 137.931 8.824C138.155 8.628 138.309 8.292 138.393 7.816L138.981 4.204H140.157L139.401 8.992H146.079L145.911 10.168H139.233ZM171.857 31L169.841 25.12H156.443L154.427 31H146.321L157.073 1.6H169.463L180.257 31H171.857ZM158.585 18.904H167.699L163.163 5.674L158.585 18.904ZM197.951 16.132C197.447 14.648 195.739 13.906 192.827 13.906C190.895 13.906 189.929 14.312 189.929 15.124C189.929 15.74 190.713 16.23 192.281 16.594L198.791 17.896C203.523 18.876 205.889 21.088 205.889 24.532C205.889 26.968 204.755 28.746 202.487 29.866C200.219 30.958 197.237 31.504 193.541 31.504C185.869 31.504 181.767 28.984 181.235 23.944L188.501 23.692C188.921 25.288 190.755 26.086 194.003 26.086C196.719 26.086 198.077 25.708 198.077 24.952C198.077 24.336 197.167 23.818 195.347 23.398L188.585 22.012C186.373 21.508 184.735 20.682 183.671 19.534C182.635 18.358 182.117 16.986 182.117 15.418C182.117 14.158 182.411 13.066 182.999 12.142C183.615 11.218 184.441 10.504 185.477 10C186.541 9.468 187.689 9.09 188.921 8.866C190.181 8.614 191.553 8.488 193.037 8.488C196.285 8.488 199.043 9.09 201.311 10.294C203.579 11.47 204.881 13.304 205.217 15.796L197.951 16.132ZM224.365 16.132C223.861 14.648 222.153 13.906 219.241 13.906C217.309 13.906 216.343 14.312 216.343 15.124C216.343 15.74 217.127 16.23 218.695 16.594L225.205 17.896C229.937 18.876 232.303 21.088 232.303 24.532C232.303 26.968 231.169 28.746 228.901 29.866C226.633 30.958 223.651 31.504 219.955 31.504C212.283 31.504 208.181 28.984 207.649 23.944L214.915 23.692C215.335 25.288 217.169 26.086 220.417 26.086C223.133 26.086 224.491 25.708 224.491 24.952C224.491 24.336 223.581 23.818 221.761 23.398L214.999 22.012C212.787 21.508 211.149 20.682 210.085 19.534C209.049 18.358 208.531 16.986 208.531 15.418C208.531 14.158 208.825 13.066 209.413 12.142C210.029 11.218 210.855 10.504 211.891 10C212.955 9.468 214.103 9.09 215.335 8.866C216.595 8.614 217.967 8.488 219.451 8.488C222.699 8.488 225.457 9.09 227.725 10.294C229.993 11.47 231.295 13.304 231.631 15.796L224.365 16.132ZM235.407 6.472V0.213998H243.807V6.472H235.407ZM235.659 31V8.992H243.555V31H235.659ZM263.37 16.132C262.866 14.648 261.158 13.906 258.246 13.906C256.314 13.906 255.348 14.312 255.348 15.124C255.348 15.74 256.132 16.23 257.7 16.594L264.21 17.896C268.942 18.876 271.308 21.088 271.308 24.532C271.308 26.968 270.174 28.746 267.906 29.866C265.638 30.958 262.656 31.504 258.96 31.504C251.288 31.504 247.186 28.984 246.654 23.944L253.92 23.692C254.34 25.288 256.174 26.086 259.422 26.086C262.138 26.086 263.496 25.708 263.496 24.952C263.496 24.336 262.586 23.818 260.766 23.398L254.004 22.012C251.792 21.508 250.154 20.682 249.09 19.534C248.054 18.358 247.536 16.986 247.536 15.418C247.536 14.158 247.83 13.066 248.418 12.142C249.034 11.218 249.86 10.504 250.896 10C251.96 9.468 253.108 9.09 254.34 8.866C255.6 8.614 256.972 8.488 258.456 8.488C261.704 8.488 264.462 9.09 266.73 10.294C268.998 11.47 270.3 13.304 270.636 15.796L263.37 16.132ZM292.055 14.872H286.133V22.012C286.133 23.104 286.329 23.86 286.721 24.28C287.141 24.7 287.953 24.91 289.157 24.91C290.109 24.91 291.075 24.826 292.055 24.658V31.042C290.403 31.294 288.863 31.42 287.435 31.42C284.299 31.42 281.975 30.804 280.463 29.572C278.979 28.312 278.237 26.184 278.237 23.188V14.872H272.945V9.076H276.641C277.341 9.076 277.845 8.95 278.153 8.698C278.461 8.418 278.615 7.984 278.615 7.396V3.658H286.133V8.992H292.055V14.872Z" fill="url(#paint0_linear_336_19)"/>
<defs>
<linearGradient id="paint0_linear_336_19" x1="-2" y1="17" x2="348" y2="17" gradientUnits="userSpaceOnUse">
<stop stop-color="#C800FF"/>
<stop offset="1" stop-color="#0F4ECA"/>
</linearGradient>
</defs>
</svg>
