<svg width="20" height="20" viewBox="0 0 20 20" fill="none" xmlns="http://www.w3.org/2000/svg">
<path d="M8.33456 2.05751C9.07253 0.685836 9.44151 0 10 0C10.5585 0 10.9275 0.685836 11.6654 2.05751L13.2112 4.93064C13.4226 5.32359 13.5283 5.52007 13.6969 5.64837C13.8654 5.77667 14.0765 5.82128 14.4985 5.9105L17.5844 6.56281C19.0576 6.87423 19.7943 7.02994 19.9668 7.58641C20.1394 8.14288 19.6309 8.72246 18.6137 9.88162L16.4831 12.3096C16.1917 12.6417 16.0461 12.8077 15.9817 13.0153C15.9173 13.2229 15.942 13.447 15.9914 13.8951L16.3529 17.1713C16.5254 18.7355 16.6117 19.5176 16.1598 19.8615C15.708 20.2054 15.0247 19.8778 13.6581 19.2225L10.7956 17.8499C10.4041 17.6622 10.2084 17.5684 10 17.5684C9.79165 17.5684 9.5959 17.6622 9.20439 17.8499L6.34188 19.2225C4.97528 19.8778 4.29198 20.2054 3.84015 19.8615C3.38832 19.5176 3.4746 18.7355 3.64715 17.1713L4.00857 13.8951C4.058 13.447 4.08272 13.2229 4.01833 13.0153C3.95395 12.8077 3.80825 12.6417 3.51686 12.3096L1.38631 9.88162C0.36915 8.72246 -0.139429 8.14288 0.0331547 7.58641C0.205738 7.02994 0.94236 6.87423 2.4156 6.56281L5.50148 5.9105C5.92354 5.82128 6.13457 5.77667 6.30313 5.64837C6.47169 5.52007 6.57739 5.32359 6.78881 4.93064L8.33456 2.05751Z" fill="#212121"/>
</svg>
