<svg width="67" height="67" viewBox="0 0 67 67" fill="none" xmlns="http://www.w3.org/2000/svg">
<circle cx="33.5" cy="33.5" r="33" fill="white" fill-opacity="0.3" stroke="white"/>
<path fill-rule="evenodd" clip-rule="evenodd" d="M15.8682 32.6668C25.3547 28.5333 31.6808 25.8089 34.8459 24.4923C43.8827 20.7337 45.761 20.0803 46.9846 20.0588C47.254 20.0543 47.8554 20.1206 48.2459 20.4369C48.5752 20.7038 48.6657 21.065 48.7093 21.3182C48.7529 21.5713 48.8069 22.1486 48.764 22.599C48.2745 27.7445 46.1554 40.2314 45.077 45.9946C44.6207 48.4333 43.7226 49.2507 42.8531 49.3308C40.9631 49.5045 39.5286 48.0818 37.6978 46.8823C34.8335 45.0047 33.2155 43.8364 30.4358 42.0043C27.2226 39.8871 29.3059 38.7234 31.1367 36.8217C31.6158 36.3238 39.9425 28.7507 40.1033 28.0634C40.1235 27.9775 40.1423 27.6573 39.9517 27.4881C39.761 27.3189 39.4804 27.3768 39.278 27.423C38.991 27.4881 34.4157 30.5125 25.5519 36.4956C24.2535 37.3873 23.0768 37.822 22.0231 37.7993C20.8614 37.7739 18.6264 37.1426 16.9648 36.6024C14.9258 35.9398 13.3058 35.5897 13.4471 34.465C13.5206 33.8793 14.3276 33.2799 15.8682 32.6674V32.6668Z" fill="white"/>
</svg>
